<?xml version="1.0" encoding="UTF-8"?>
<svg xmlns="http://www.w3.org/2000/svg" xmlns:xlink="http://www.w3.org/1999/xlink" width="16pt" height="18pt" viewBox="0 0 16 18" version="1.1">
<g id="surface1">
<path style=" stroke:none;fill-rule:nonzero;fill:rgb(0%,0%,0%);fill-opacity:1;" d="M 9.195312 15.648438 L 8.402344 16.429688 C 8.066406 16.757812 7.523438 16.757812 7.191406 16.429688 L 0.25 9.597656 C -0.0859375 9.265625 -0.0859375 8.734375 0.25 8.40625 L 7.191406 1.570312 C 7.527344 1.242188 8.070312 1.242188 8.402344 1.570312 L 9.195312 2.351562 C 9.535156 2.6875 9.527344 3.230469 9.183594 3.558594 L 4.878906 7.59375 L 15.144531 7.59375 C 15.617188 7.59375 16 7.96875 16 8.4375 L 16 9.5625 C 16 10.03125 15.617188 10.40625 15.144531 10.40625 L 4.878906 10.40625 L 9.183594 14.441406 C 9.53125 14.769531 9.539062 15.3125 9.195312 15.648438 Z M 9.195312 15.648438 "/>
</g>
</svg>
