<?xml version="1.0" encoding="UTF-8"?>
<svg xmlns="http://www.w3.org/2000/svg" xmlns:xlink="http://www.w3.org/1999/xlink" width="16pt" height="13pt" viewBox="0 0 16 13" version="1.1">
<g id="surface1">
<path style=" stroke:none;fill-rule:nonzero;fill:rgb(0%,0%,0%);fill-opacity:1;" d="M 12.199219 4.875 L 8.398438 4.875 L 8.398438 6.296875 C 8.398438 7.304688 7.59375 8.125 6.601562 8.125 C 5.609375 8.125 4.800781 7.304688 4.800781 6.296875 L 4.800781 3.210938 L 3.175781 4.199219 C 2.695312 4.492188 2.398438 5.023438 2.398438 5.589844 L 2.398438 6.792969 L 0.398438 7.964844 C 0.015625 8.1875 -0.113281 8.6875 0.109375 9.074219 L 2.109375 12.59375 C 2.328125 12.980469 2.816406 13.113281 3.199219 12.890625 L 5.785156 11.375 L 9.199219 11.375 C 10.082031 11.375 10.800781 10.644531 10.800781 9.75 L 11.199219 9.75 C 11.640625 9.75 12 9.386719 12 8.9375 L 12 7.3125 L 12.199219 7.3125 C 12.53125 7.3125 12.800781 7.039062 12.800781 6.703125 L 12.800781 5.484375 C 12.800781 5.148438 12.53125 4.875 12.199219 4.875 Z M 15.890625 3.925781 L 13.890625 0.40625 C 13.671875 0.0195312 13.183594 -0.113281 12.800781 0.109375 L 10.214844 1.625 L 7.660156 1.625 C 7.359375 1.625 7.066406 1.710938 6.8125 1.871094 L 5.976562 2.402344 C 5.738281 2.550781 5.601562 2.8125 5.601562 3.089844 L 5.601562 6.296875 C 5.601562 6.859375 6.046875 7.3125 6.601562 7.3125 C 7.152344 7.3125 7.601562 6.859375 7.601562 6.296875 L 7.601562 4.0625 L 12.199219 4.0625 C 12.972656 4.0625 13.601562 4.699219 13.601562 5.484375 L 13.601562 6.207031 L 15.601562 5.035156 C 15.984375 4.808594 16.113281 4.3125 15.890625 3.925781 Z M 15.890625 3.925781 "/>
</g>
</svg>
