<?xml version="1.0" encoding="UTF-8"?>
<svg xmlns="http://www.w3.org/2000/svg" xmlns:xlink="http://www.w3.org/1999/xlink" width="16pt" height="16pt" viewBox="0 0 16 16" version="1.1">
<g id="surface1">
<path style=" stroke:none;fill-rule:nonzero;fill:rgb(0%,0%,0%);fill-opacity:1;" d="M 14.324219 2.007812 C 12.519531 0.492188 9.726562 0.71875 8 2.476562 C 6.273438 0.71875 3.480469 0.488281 1.675781 2.007812 C -0.675781 3.988281 -0.332031 7.210938 1.34375 8.921875 L 6.824219 14.507812 C 7.136719 14.824219 7.554688 15.003906 8 15.003906 C 8.445312 15.003906 8.863281 14.828125 9.175781 14.507812 L 14.65625 8.925781 C 16.328125 7.214844 16.679688 3.992188 14.324219 2.007812 Z M 13.585938 7.867188 L 8.105469 13.453125 C 8.03125 13.527344 7.96875 13.527344 7.894531 13.453125 L 2.414062 7.867188 C 1.273438 6.707031 1.039062 4.507812 2.640625 3.160156 C 3.855469 2.136719 5.730469 2.289062 6.90625 3.488281 L 8 4.601562 L 9.09375 3.488281 C 10.273438 2.285156 12.148438 2.136719 13.359375 3.15625 C 14.957031 4.503906 14.71875 6.714844 13.585938 7.867188 Z M 13.585938 7.867188 "/>
</g>
</svg>
