<?xml version="1.0" encoding="UTF-8"?>
<svg xmlns="http://www.w3.org/2000/svg" xmlns:xlink="http://www.w3.org/1999/xlink" width="16pt" height="16pt" viewBox="0 0 16 16" version="1.1">
<g id="surface1">
<path style=" stroke:none;fill-rule:nonzero;fill:rgb(0%,0%,0%);fill-opacity:1;" d="M 1.5 1.5 C 0.671875 1.5 0 2.171875 0 3 C 0 3.828125 0.671875 4.5 1.5 4.5 C 2.328125 4.5 3 3.828125 3 3 C 3 2.171875 2.328125 1.5 1.5 1.5 Z M 1.5 6.5 C 0.671875 6.5 0 7.171875 0 8 C 0 8.828125 0.671875 9.5 1.5 9.5 C 2.328125 9.5 3 8.828125 3 8 C 3 7.171875 2.328125 6.5 1.5 6.5 Z M 1.5 11.5 C 0.671875 11.5 0 12.171875 0 13 C 0 13.828125 0.671875 14.5 1.5 14.5 C 2.328125 14.5 3 13.828125 3 13 C 3 12.171875 2.328125 11.5 1.5 11.5 Z M 15.5 12 L 5.5 12 C 5.222656 12 5 12.222656 5 12.5 L 5 13.5 C 5 13.777344 5.222656 14 5.5 14 L 15.5 14 C 15.777344 14 16 13.777344 16 13.5 L 16 12.5 C 16 12.222656 15.777344 12 15.5 12 Z M 15.5 2 L 5.5 2 C 5.222656 2 5 2.222656 5 2.5 L 5 3.5 C 5 3.777344 5.222656 4 5.5 4 L 15.5 4 C 15.777344 4 16 3.777344 16 3.5 L 16 2.5 C 16 2.222656 15.777344 2 15.5 2 Z M 15.5 7 L 5.5 7 C 5.222656 7 5 7.222656 5 7.5 L 5 8.5 C 5 8.777344 5.222656 9 5.5 9 L 15.5 9 C 15.777344 9 16 8.777344 16 8.5 L 16 7.5 C 16 7.222656 15.777344 7 15.5 7 Z M 15.5 7 "/>
</g>
</svg>
