<?xml version="1.0" encoding="UTF-8"?>
<svg xmlns="http://www.w3.org/2000/svg" xmlns:xlink="http://www.w3.org/1999/xlink" width="16pt" height="16pt" viewBox="0 0 16 16" version="1.1">
<g id="surface1">
<path style=" stroke:none;fill-rule:nonzero;fill:rgb(0%,0%,0%);fill-opacity:1;" d="M 3 3 C 3 3.828125 2.328125 4.5 1.5 4.5 C 0.671875 4.5 0 3.828125 0 3 C 0 2.171875 0.671875 1.5 1.5 1.5 C 2.328125 1.5 3 2.171875 3 3 Z M 1.5 6.5 C 0.671875 6.5 0 7.171875 0 8 C 0 8.828125 0.671875 9.5 1.5 9.5 C 2.328125 9.5 3 8.828125 3 8 C 3 7.171875 2.328125 6.5 1.5 6.5 Z M 1.5 11.5 C 0.671875 11.5 0 12.171875 0 13 C 0 13.828125 0.671875 14.5 1.5 14.5 C 2.328125 14.5 3 13.828125 3 13 C 3 12.171875 2.328125 11.5 1.5 11.5 Z M 4.5 4.125 L 15.5 4.125 C 15.777344 4.125 16 3.902344 16 3.625 L 16 2.375 C 16 2.097656 15.777344 1.875 15.5 1.875 L 4.5 1.875 C 4.222656 1.875 4 2.097656 4 2.375 L 4 3.625 C 4 3.902344 4.222656 4.125 4.5 4.125 Z M 4.5 9.125 L 15.5 9.125 C 15.777344 9.125 16 8.902344 16 8.625 L 16 7.375 C 16 7.097656 15.777344 6.875 15.5 6.875 L 4.5 6.875 C 4.222656 6.875 4 7.097656 4 7.375 L 4 8.625 C 4 8.902344 4.222656 9.125 4.5 9.125 Z M 4.5 14.125 L 15.5 14.125 C 15.777344 14.125 16 13.902344 16 13.625 L 16 12.375 C 16 12.097656 15.777344 11.875 15.5 11.875 L 4.5 11.875 C 4.222656 11.875 4 12.097656 4 12.375 L 4 13.625 C 4 13.902344 4.222656 14.125 4.5 14.125 Z M 4.5 14.125 "/>
</g>
</svg>
