<?xml version="1.0" encoding="UTF-8"?>
<svg xmlns="http://www.w3.org/2000/svg" xmlns:xlink="http://www.w3.org/1999/xlink" width="12pt" height="16pt" viewBox="0 0 12 16" version="1.1">
<g id="surface1">
<path style=" stroke:none;fill-rule:nonzero;fill:rgb(0%,0%,0%);fill-opacity:1;" d="M 5.382812 15.675781 C 0.84375 9.09375 0 8.417969 0 6 C 0 2.6875 2.6875 0 6 0 C 9.3125 0 12 2.6875 12 6 C 12 8.417969 11.15625 9.09375 6.617188 15.675781 C 6.320312 16.109375 5.679688 16.109375 5.382812 15.675781 Z M 6 8.5 C 7.378906 8.5 8.5 7.378906 8.5 6 C 8.5 4.621094 7.378906 3.5 6 3.5 C 4.621094 3.5 3.5 4.621094 3.5 6 C 3.5 7.378906 4.621094 8.5 6 8.5 Z M 6 8.5 "/>
</g>
</svg>
