<?xml version="1.0" encoding="UTF-8"?>
<svg xmlns="http://www.w3.org/2000/svg" xmlns:xlink="http://www.w3.org/1999/xlink" width="16pt" height="16pt" viewBox="0 0 16 16" version="1.1">
<g id="surface1">
<path style=" stroke:none;fill-rule:nonzero;fill:rgb(0%,0%,0%);fill-opacity:1;" d="M 7.054688 1.34375 C 3.652344 2.347656 2.507812 2.695312 2.460938 2.746094 L 2.390625 2.816406 L 2.390625 15.835938 L 2.539062 16 L 13.460938 16 L 13.609375 15.835938 L 13.609375 2.804688 L 13.523438 2.730469 C 13.433594 2.65625 13.429688 2.65625 12.714844 2.65625 L 12 2.65625 L 12 0.132812 L 11.929688 0.0703125 C 11.875 0.0195312 11.820312 0 11.714844 0.00390625 C 11.632812 0.0078125 9.726562 0.554688 7.054688 1.34375 Z M 11.4375 1.65625 L 11.4375 2.65625 L 8.039062 2.652344 L 4.640625 2.652344 L 8.015625 1.65625 C 9.871094 1.109375 11.398438 0.660156 11.414062 0.660156 C 11.429688 0.65625 11.4375 1.105469 11.4375 1.65625 Z M 13.0625 9.328125 L 13.0625 15.4375 L 2.9375 15.4375 L 2.9375 3.21875 L 13.0625 3.21875 Z M 13.0625 9.328125 "/>
<path style=" stroke:none;fill-rule:nonzero;fill:rgb(0%,0%,0%);fill-opacity:1;" d="M 4.339844 4.339844 L 4.25 4.429688 L 4.25 5.578125 C 4.25 6.746094 4.257812 6.808594 4.371094 6.898438 C 4.460938 6.96875 4.648438 6.945312 4.734375 6.855469 C 4.808594 6.773438 4.8125 6.757812 4.820312 6.175781 L 4.828125 5.578125 L 4.960938 5.804688 C 5.117188 6.066406 5.1875 6.125 5.351562 6.125 C 5.492188 6.125 5.539062 6.085938 5.703125 5.800781 L 5.828125 5.585938 L 5.84375 6.179688 C 5.859375 6.757812 5.863281 6.777344 5.933594 6.855469 C 6.039062 6.964844 6.222656 6.96875 6.328125 6.859375 L 6.40625 6.785156 L 6.40625 5.601562 C 6.402344 4.726562 6.394531 4.410156 6.367188 4.371094 C 6.273438 4.253906 6.09375 4.214844 5.980469 4.296875 C 5.945312 4.320312 5.785156 4.558594 5.625 4.828125 L 5.335938 5.316406 L 5.058594 4.851562 C 4.90625 4.601562 4.746094 4.359375 4.703125 4.320312 C 4.585938 4.222656 4.453125 4.226562 4.339844 4.339844 Z M 4.339844 4.339844 "/>
<path style=" stroke:none;fill-rule:nonzero;fill:rgb(0%,0%,0%);fill-opacity:1;" d="M 6.796875 4.289062 C 6.660156 4.367188 6.660156 4.367188 6.65625 5.601562 L 6.65625 6.785156 L 6.734375 6.859375 C 6.808594 6.9375 6.820312 6.9375 7.320312 6.9375 C 7.792969 6.9375 7.839844 6.929688 7.917969 6.871094 C 8.035156 6.78125 8.035156 6.574219 7.917969 6.464844 C 7.847656 6.398438 7.804688 6.390625 7.527344 6.382812 L 7.21875 6.367188 L 7.21875 5.875 L 7.53125 5.875 C 7.824219 5.875 7.851562 5.867188 7.921875 5.796875 C 7.976562 5.742188 8 5.6875 8 5.601562 C 7.996094 5.378906 7.882812 5.3125 7.480469 5.3125 L 7.21875 5.3125 L 7.21875 4.8125 L 7.53125 4.8125 C 7.824219 4.8125 7.851562 4.804688 7.921875 4.734375 C 7.976562 4.683594 8 4.625 8 4.550781 C 8 4.285156 7.921875 4.25 7.320312 4.25 C 7.035156 4.25 6.835938 4.265625 6.796875 4.289062 Z M 6.796875 4.289062 "/>
<path style=" stroke:none;fill-rule:nonzero;fill:rgb(0%,0%,0%);fill-opacity:1;" d="M 8.339844 4.339844 L 8.25 4.429688 L 8.25 5.578125 C 8.25 6.746094 8.257812 6.808594 8.371094 6.898438 C 8.464844 6.96875 8.648438 6.945312 8.734375 6.855469 C 8.808594 6.773438 8.8125 6.757812 8.8125 6.253906 L 8.816406 5.734375 L 9.105469 6.308594 C 9.265625 6.621094 9.414062 6.894531 9.441406 6.910156 C 9.53125 6.964844 9.71875 6.941406 9.796875 6.859375 L 9.875 6.785156 L 9.875 5.601562 C 9.871094 4.726562 9.863281 4.410156 9.835938 4.371094 C 9.726562 4.234375 9.503906 4.222656 9.386719 4.347656 C 9.335938 4.402344 9.324219 4.480469 9.3125 4.914062 L 9.296875 5.410156 L 9.046875 4.90625 C 8.898438 4.601562 8.761719 4.367188 8.710938 4.324219 C 8.585938 4.222656 8.457031 4.226562 8.339844 4.339844 Z M 8.339844 4.339844 "/>
<path style=" stroke:none;fill-rule:nonzero;fill:rgb(0%,0%,0%);fill-opacity:1;" d="M 10.265625 4.289062 C 10.128906 4.367188 10.128906 4.382812 10.125 5.34375 C 10.125 5.882812 10.136719 6.3125 10.15625 6.382812 C 10.242188 6.695312 10.578125 6.9375 10.917969 6.9375 C 11.257812 6.933594 11.488281 6.804688 11.644531 6.523438 L 11.734375 6.359375 L 11.742188 5.398438 L 11.753906 4.4375 L 11.660156 4.34375 C 11.535156 4.21875 11.402344 4.21875 11.277344 4.339844 L 11.1875 4.429688 L 11.1875 5.296875 C 11.1875 6.175781 11.179688 6.246094 11.066406 6.335938 C 10.992188 6.390625 10.859375 6.382812 10.777344 6.316406 L 10.703125 6.257812 L 10.6875 5.332031 C 10.671875 4.453125 10.667969 4.40625 10.605469 4.34375 C 10.527344 4.265625 10.351562 4.234375 10.265625 4.289062 Z M 10.265625 4.289062 "/>
<path style=" stroke:none;fill-rule:nonzero;fill:rgb(0%,0%,0%);fill-opacity:1;" d="M 3.601562 9.359375 C 3.4375 9.429688 3.40625 9.683594 3.546875 9.804688 L 3.628906 9.875 L 12.371094 9.875 L 12.453125 9.804688 C 12.597656 9.679688 12.5625 9.429688 12.386719 9.355469 C 12.234375 9.289062 3.753906 9.292969 3.601562 9.359375 Z M 3.601562 9.359375 "/>
<path style=" stroke:none;fill-rule:nonzero;fill:rgb(0%,0%,0%);fill-opacity:1;" d="M 3.667969 10.929688 C 3.476562 10.964844 3.394531 11.246094 3.535156 11.394531 L 3.601562 11.46875 L 12.398438 11.46875 L 12.464844 11.394531 C 12.570312 11.285156 12.5625 11.113281 12.457031 11.003906 L 12.375 10.921875 L 8.054688 10.917969 C 5.679688 10.914062 3.703125 10.917969 3.667969 10.929688 Z M 3.667969 10.929688 "/>
<path style=" stroke:none;fill-rule:nonzero;fill:rgb(0%,0%,0%);fill-opacity:1;" d="M 3.535156 12.605469 C 3.429688 12.714844 3.4375 12.886719 3.542969 12.996094 L 3.625 13.078125 L 12.375 13.078125 L 12.457031 12.996094 C 12.5625 12.886719 12.570312 12.714844 12.464844 12.605469 L 12.398438 12.53125 L 3.601562 12.53125 Z M 3.535156 12.605469 "/>
</g>
</svg>
