<?xml version="1.0" encoding="UTF-8"?>
<svg xmlns="http://www.w3.org/2000/svg" xmlns:xlink="http://www.w3.org/1999/xlink" width="16pt" height="16pt" viewBox="0 0 16 16" version="1.1">
<g id="surface1">
<path style=" stroke:none;fill-rule:nonzero;fill:rgb(0%,0%,0%);fill-opacity:1;" d="M 2.308594 12.941406 C 1.917969 13.335938 1.917969 13.972656 2.308594 14.363281 C 2.703125 14.753906 3.339844 14.753906 3.730469 14.363281 L 7.558594 10.535156 L 6.21875 9.035156 Z M 2.308594 12.941406 "/>
<path style=" stroke:none;fill-rule:nonzero;fill:rgb(0%,0%,0%);fill-opacity:1;" d="M 15.605469 3.699219 C 15.402344 3.492188 15.070312 3.492188 14.867188 3.699219 L 12.375 6.191406 C 12.316406 6.246094 12.226562 6.246094 12.167969 6.191406 L 11.816406 5.839844 C 11.789062 5.8125 11.773438 5.773438 11.773438 5.734375 C 11.773438 5.699219 11.789062 5.660156 11.816406 5.632812 L 14.292969 3.160156 C 14.394531 3.058594 14.453125 2.917969 14.453125 2.773438 C 14.453125 2.625 14.394531 2.484375 14.292969 2.382812 C 14.1875 2.28125 14.046875 2.222656 13.902344 2.222656 C 13.757812 2.222656 13.617188 2.28125 13.515625 2.382812 L 11.039062 4.855469 C 11.011719 4.882812 10.976562 4.898438 10.9375 4.898438 C 10.898438 4.898438 10.863281 4.882812 10.835938 4.855469 L 10.484375 4.503906 C 10.429688 4.449219 10.429688 4.359375 10.484375 4.300781 L 12.976562 1.808594 C 13.179688 1.605469 13.179688 1.273438 12.976562 1.070312 C 12.878906 0.96875 12.746094 0.914062 12.605469 0.914062 C 12.46875 0.914062 12.335938 0.96875 12.238281 1.066406 L 9.535156 3.769531 C 8.859375 4.445312 8.683594 5.421875 8.988281 6.265625 L 8.550781 6.703125 L 9.972656 8.121094 L 10.410156 7.6875 C 11.25 7.992188 12.230469 7.8125 12.90625 7.136719 L 15.605469 4.4375 C 15.808594 4.234375 15.808594 3.902344 15.605469 3.699219 Z M 15.605469 3.699219 "/>
<path style=" stroke:none;fill-rule:nonzero;fill:rgb(0%,0%,0%);fill-opacity:1;" d="M 2.449219 1.691406 C 2.214844 1.457031 1.894531 1.324219 1.5625 1.324219 C 1.230469 1.324219 0.914062 1.457031 0.675781 1.691406 C 0.230469 2.136719 0.1875 2.84375 0.570312 3.34375 L 3.890625 7.636719 C 4.152344 7.976562 4.550781 8.191406 4.980469 8.21875 C 5.011719 8.21875 5.042969 8.21875 5.078125 8.21875 C 5.472656 8.21875 5.855469 8.0625 6.136719 7.78125 L 11.582031 13.875 C 11.78125 14.097656 12.058594 14.226562 12.355469 14.238281 C 12.367188 14.238281 12.375 14.238281 12.386719 14.238281 C 12.671875 14.238281 12.949219 14.125 13.152344 13.921875 C 13.574219 13.5 13.574219 12.816406 13.152344 12.394531 Z M 2.449219 1.691406 "/>
</g>
</svg>
