<?xml version="1.0" standalone="no"?>
<!DOCTYPE svg PUBLIC "-//W3C//DTD SVG 20010904//EN"
 "http://www.w3.org/TR/2001/REC-SVG-20010904/DTD/svg10.dtd">
<svg version="1.0" xmlns="http://www.w3.org/2000/svg"
 width="16.000000pt" height="16.000000pt" viewBox="0 0 16.000000 16.000000"
 preserveAspectRatio="xMidYMid meet">
<metadata>
Created by potrace 1.16, written by Peter Selinger 2001-2019
</metadata>
<g transform="translate(0.000000,16.000000) scale(0.003125,-0.003125)"
fill="#000000" stroke="none">
<path d="M738 4959 c-85 -20 -158 -95 -178 -181 -5 -25 -10 -219 -10 -454 l0
-411 -53 -35 c-159 -107 -267 -257 -319 -443 l-23 -80 -3 -1430 c-3 -1480 -2
-1516 38 -1594 26 -51 89 -112 146 -141 l49 -25 2228 -3 2229 -2 38 21 c21 12
47 38 59 59 l21 38 0 1393 0 1394 -187 525 c-135 377 -196 535 -218 564 -38
50 -106 85 -178 93 l-57 6 0 256 c0 141 -5 272 -10 292 -14 50 -80 123 -132
145 -41 18 -107 19 -1723 21 -954 0 -1696 -3 -1717 -8z m331 -174 c34 -17 41
-33 41 -91 l0 -44 -195 0 -195 0 0 38 c0 47 18 83 50 99 37 19 263 17 299 -2z
m3040 0 c16 -8 31 -22 35 -30 3 -9 6 -127 6 -261 l0 -244 -1435 0 -1435 0 0
259 c0 143 -3 266 -6 275 -6 15 122 16 1400 16 1215 0 1411 -2 1435 -15z
m-2999 -420 l0 -115 -195 0 -195 0 0 115 0 115 195 0 195 0 0 -115z m0 -336
c0 -46 -2 -50 -20 -44 -68 21 -282 22 -349 0 -19 -6 -21 -2 -21 38 0 27 5 47
13 50 6 3 94 6 195 6 l182 1 0 -51z m546 24 c-3 -16 -17 -111 -31 -213 -36
-259 -30 -245 -66 -183 -39 68 -153 183 -223 224 l-56 34 0 82 0 83 191 0 191
0 -6 -27z m414 10 c0 -10 -11 -160 -25 -333 -14 -173 -25 -325 -25 -337 0 -23
-1 -23 -145 -23 l-146 0 6 33 c8 44 95 658 95 669 0 4 54 8 120 8 108 0 120
-2 120 -17z m403 -110 c4 -71 7 -231 7 -358 l0 -230 -145 3 c-129 3 -145 5
-145 20 0 9 11 159 25 332 14 173 25 325 25 338 0 22 2 22 113 22 l114 0 6
-127z m398 125 c0 -2 17 -216 37 -475 l37 -473 -147 0 -148 0 0 303 c0 166 -3
380 -7 475 l-6 172 116 0 c65 0 117 -1 118 -2z m414 -20 c2 -13 32 -216 65
-453 33 -236 63 -440 65 -453 l6 -23 -153 3 -153 3 -31 415 c-18 228 -34 441
-37 473 l-5 57 119 0 c115 0 119 -1 124 -22z m389 5 c3 -10 51 -216 106 -458
55 -242 103 -448 106 -457 5 -17 -7 -18 -145 -18 -83 0 -151 1 -151 3 0 2 -29
207 -65 457 -36 250 -65 462 -65 472 0 16 10 18 104 18 91 0 105 -2 110 -17z
m551 -453 c85 -256 155 -468 155 -472 0 -5 -71 -8 -157 -8 l-158 0 -104 452
c-58 248 -106 462 -109 475 l-4 24 111 -3 111 -3 155 -465z m180 448 c21 -18
59 -116 186 -468 87 -245 159 -448 159 -452 0 -5 -42 -8 -93 -8 l-92 0 -154
463 c-85 254 -156 468 -159 475 -3 9 13 12 61 12 54 0 71 -4 92 -22z m-3336
-243 c186 -49 360 -217 415 -399 l14 -45 -393 -3 -393 -3 -25 -23 c-33 -31
-119 -206 -148 -299 l-23 -73 -99 0 -100 0 6 183 c6 205 17 261 75 371 83 159
260 281 447 310 47 7 164 -3 224 -19z m1365 -682 c134 -269 153 -598 49 -870
l-16 -43 -39 36 c-226 204 -583 287 -834 193 -32 -12 -100 -51 -153 -88 -129
-88 -196 -110 -331 -111 -153 0 -281 39 -395 121 -49 36 -51 41 -65 179 -19
183 16 377 102 562 l41 88 803 0 804 0 34 -67z m2356 -1488 l0 -1315 -795 0
-795 0 0 588 c0 645 0 640 -62 771 -22 46 -54 89 -107 142 -112 113 -224 163
-388 176 -46 3 -83 8 -83 10 0 2 15 34 34 71 43 86 80 194 103 302 24 111 25
402 2 503 l-16 67 1054 0 1053 0 0 -1315z m-4313 1003 c2 -231 41 -405 133
-588 134 -264 387 -481 668 -571 l72 -23 0 -48 0 -48 -515 0 -515 0 0 715 0
715 78 0 78 0 1 -152z m1519 -352 c34 -9 83 -25 110 -37 65 -28 201 -120 244
-164 l34 -35 -38 -55 c-54 -77 -203 -217 -286 -266 -260 -154 -563 -171 -836
-45 -184 85 -360 252 -447 422 l-16 32 47 -18 c84 -32 197 -50 314 -50 174 0
263 29 403 128 128 92 192 113 326 107 47 -2 112 -10 145 -19z m683 -466 c134
-22 251 -111 313 -238 l33 -67 3 -598 3 -597 -274 0 -275 0 -4 65 c-3 52 -10
73 -33 106 -35 48 -47 55 -183 110 l-103 42 3 431 c3 422 3 432 26 488 16 40
36 67 70 94 26 21 70 60 97 85 49 46 107 71 190 82 55 7 70 7 134 -3z m-689
-712 l-5 -396 -72 30 -73 31 0 341 0 341 78 25 c42 14 77 25 77 25 0 0 -2
-178 -5 -397z m-320 -43 c0 -300 3 -371 14 -394 13 -24 54 -44 308 -146 161
-65 299 -123 306 -128 7 -6 12 -24 10 -41 l-3 -31 -701 -3 c-762 -2 -734 -4
-720 52 5 20 46 40 298 142 161 65 303 128 316 141 l22 22 0 376 0 375 75 0
75 0 0 -365z m-322 -86 l-3 -212 -270 -108 c-234 -95 -275 -114 -307 -148 -40
-42 -62 -105 -56 -158 l4 -33 -139 0 c-156 0 -178 7 -224 67 l-28 36 -3 384
-3 383 516 0 515 0 -2 -211z"/>
<path d="M1560 4637 c-37 -19 -54 -61 -41 -99 18 -51 35 -57 159 -58 107 0
114 1 137 25 44 43 29 112 -29 135 -38 14 -196 12 -226 -3z"/>
<path d="M1960 4637 c-37 -19 -54 -61 -41 -99 21 -60 -3 -57 599 -58 l553 0
24 25 c44 43 29 112 -29 135 -43 16 -1074 13 -1106 -3z"/>
<path d="M878 2959 c-94 -35 -111 -367 -23 -455 46 -46 125 -24 141 40 3 14
-2 48 -12 78 -21 64 -21 148 1 208 8 24 13 56 10 71 -11 51 -65 77 -117 58z"/>
<path d="M3930 2484 c-98 -16 -145 -31 -220 -66 -114 -55 -230 -168 -284 -278
-71 -146 -69 -123 -73 -750 -3 -311 -2 -580 2 -598 3 -17 16 -41 27 -52 21
-20 36 -20 615 -20 l594 0 24 25 25 24 0 579 c0 545 -1 583 -20 656 -69 270
-303 463 -580 480 -47 2 -96 3 -110 0z m207 -190 c65 -19 156 -78 210 -137 45
-49 96 -141 108 -194 l7 -33 -465 0 -465 0 10 38 c33 122 130 237 248 295 116
57 220 66 347 31z m333 -969 l0 -435 -475 0 -475 0 0 435 0 435 475 0 475 0 0
-435z"/>
<path d="M3895 1603 c-31 -7 -213 -193 -220 -224 -7 -31 16 -83 40 -93 9 -3
31 -6 48 -6 26 0 47 16 134 103 92 92 103 107 103 138 0 53 -52 94 -105 82z"/>
<path d="M4215 1523 c-27 -6 -372 -351 -379 -379 -7 -28 9 -73 32 -90 9 -8 33
-14 52 -14 32 0 50 15 217 183 169 168 183 185 183 218 0 53 -52 94 -105 82z"/>
<path d="M2360 1117 c-37 -19 -54 -61 -41 -99 14 -40 38 -57 79 -58 44 0 82
38 82 82 -1 40 -17 64 -54 78 -34 13 -35 12 -66 -3z"/>
</g>
</svg>
