<?xml version="1.0" encoding="UTF-8"?>
<svg xmlns="http://www.w3.org/2000/svg" xmlns:xlink="http://www.w3.org/1999/xlink" width="16pt" height="13pt" viewBox="0 0 16 13" version="1.1">
<g id="surface1">
<path style=" stroke:none;fill-rule:nonzero;fill:rgb(0%,0%,0%);fill-opacity:1;" d="M 15.636719 3.011719 L 13.949219 0.382812 C 13.800781 0.144531 13.53125 0 13.246094 0 L 2.753906 0 C 2.46875 0 2.199219 0.144531 2.050781 0.382812 L 0.363281 3.011719 C -0.507812 4.371094 0.265625 6.257812 1.890625 6.476562 C 2.007812 6.488281 2.128906 6.496094 2.246094 6.496094 C 3.015625 6.496094 3.695312 6.167969 4.164062 5.65625 C 4.632812 6.167969 5.3125 6.496094 6.082031 6.496094 C 6.847656 6.496094 7.53125 6.167969 7.996094 5.65625 C 8.464844 6.167969 9.148438 6.496094 9.914062 6.496094 C 10.683594 6.496094 11.363281 6.167969 11.832031 5.65625 C 12.300781 6.167969 12.980469 6.496094 13.75 6.496094 C 13.871094 6.496094 13.988281 6.488281 14.105469 6.476562 C 15.734375 6.261719 16.507812 4.371094 15.636719 3.011719 Z M 13.753906 7.3125 C 13.492188 7.3125 13.238281 7.273438 12.988281 7.214844 L 12.988281 9.75 L 3.011719 9.75 L 3.011719 7.214844 C 2.761719 7.273438 2.507812 7.3125 2.246094 7.3125 C 2.089844 7.3125 1.933594 7.300781 1.777344 7.28125 C 1.632812 7.261719 1.492188 7.230469 1.351562 7.191406 L 1.351562 12.1875 C 1.351562 12.636719 1.726562 13 2.183594 13 L 13.820312 13 C 14.28125 13 14.652344 12.636719 14.652344 12.1875 L 14.652344 7.191406 C 14.511719 7.230469 14.371094 7.265625 14.226562 7.28125 C 14.066406 7.300781 13.910156 7.3125 13.753906 7.3125 Z M 13.753906 7.3125 "/>
</g>
</svg>
