<?xml version="1.0" encoding="UTF-8"?>
<svg xmlns="http://www.w3.org/2000/svg" xmlns:xlink="http://www.w3.org/1999/xlink" width="16pt" height="16pt" viewBox="0 0 16 16" version="1.1">
<g id="surface1">
<path style=" stroke:none;fill-rule:nonzero;fill:rgb(0%,0%,0%);fill-opacity:1;" d="M 11.53125 0 L 4.511719 0 C 4.128906 0 3.820312 0.3125 3.820312 0.695312 L 3.820312 15.351562 C 3.820312 15.734375 4.128906 16.046875 4.511719 16.046875 L 11.53125 16.046875 C 11.917969 16.046875 12.226562 15.734375 12.226562 15.351562 L 12.226562 0.695312 C 12.226562 0.3125 11.917969 0 11.53125 0 Z M 7.429688 0.847656 L 8.617188 0.847656 C 8.65625 0.847656 8.6875 0.882812 8.6875 0.921875 C 8.6875 0.960938 8.65625 0.992188 8.617188 0.992188 L 7.429688 0.992188 C 7.390625 0.992188 7.359375 0.960938 7.359375 0.921875 C 7.359375 0.882812 7.390625 0.847656 7.429688 0.847656 Z M 8.023438 15.417969 C 7.773438 15.417969 7.570312 15.214844 7.570312 14.964844 C 7.570312 14.714844 7.773438 14.511719 8.023438 14.511719 C 8.273438 14.511719 8.476562 14.714844 8.476562 14.964844 C 8.476562 15.214844 8.273438 15.417969 8.023438 15.417969 Z M 11.558594 14.039062 L 4.484375 14.039062 L 4.484375 2.003906 L 11.558594 2.003906 Z M 11.558594 14.039062 "/>
</g>
</svg>
