<?xml version="1.0" encoding="UTF-8"?>
<svg xmlns="http://www.w3.org/2000/svg" xmlns:xlink="http://www.w3.org/1999/xlink" width="16pt" height="25pt" viewBox="0 0 16 25" version="1.1">
<g id="surface1">
<path style=" stroke:none;fill-rule:nonzero;fill:rgb(0%,0%,0%);fill-opacity:1;" d="M 13.601562 0 L 2.398438 0 C 1.074219 0 0 1.050781 0 2.34375 L 0 22.65625 C 0 23.949219 1.074219 25 2.398438 25 L 13.601562 25 C 14.925781 25 16 23.949219 16 22.65625 L 16 2.34375 C 16 1.050781 14.925781 0 13.601562 0 Z M 8 23.4375 C 7.113281 23.4375 6.398438 22.738281 6.398438 21.875 C 6.398438 21.011719 7.113281 20.3125 8 20.3125 C 8.886719 20.3125 9.601562 21.011719 9.601562 21.875 C 9.601562 22.738281 8.886719 23.4375 8 23.4375 Z M 13.601562 18.164062 C 13.601562 18.484375 13.328125 18.75 13 18.75 L 3 18.75 C 2.671875 18.75 2.398438 18.484375 2.398438 18.164062 L 2.398438 2.929688 C 2.398438 2.609375 2.671875 2.34375 3 2.34375 L 13 2.34375 C 13.328125 2.34375 13.601562 2.609375 13.601562 2.929688 Z M 13.601562 18.164062 "/>
</g>
</svg>
