<?xml version="1.0" encoding="UTF-8"?>
<svg xmlns="http://www.w3.org/2000/svg" xmlns:xlink="http://www.w3.org/1999/xlink" width="16pt" height="19pt" viewBox="0 0 16 19" version="1.1">
<g id="surface1">
<path style=" stroke:none;fill-rule:nonzero;fill:rgb(0%,0%,0%);fill-opacity:1;" d="M 7.996094 0.5625 C 8.027344 0.738281 8.617188 4.070312 8.617188 5.34375 C 8.617188 7.285156 7.546875 8.667969 5.964844 9.226562 L 6.460938 18.0625 C 6.488281 18.570312 6.070312 19 5.539062 19 L 3.078125 19 C 2.550781 19 2.125 18.574219 2.152344 18.0625 L 2.648438 9.226562 C 1.066406 8.667969 0 7.28125 0 5.34375 C 0 4.066406 0.589844 0.738281 0.621094 0.5625 C 0.742188 -0.1875 2.363281 -0.199219 2.460938 0.605469 L 2.460938 5.84375 C 2.511719 5.972656 3.042969 5.964844 3.078125 5.84375 C 3.128906 4.90625 3.378906 0.679688 3.382812 0.582031 C 3.511719 -0.1875 5.105469 -0.1875 5.226562 0.582031 C 5.234375 0.683594 5.480469 4.90625 5.535156 5.84375 C 5.570312 5.964844 6.105469 5.972656 6.148438 5.84375 L 6.148438 0.605469 C 6.25 -0.195312 7.875 -0.1875 7.996094 0.5625 Z M 12.582031 11.167969 L 12.003906 18.035156 C 11.957031 18.554688 12.382812 19 12.921875 19 L 15.078125 19 C 15.589844 19 16 18.601562 16 18.109375 L 16 0.890625 C 16 0.402344 15.589844 0 15.078125 0 C 11.902344 0 6.5625 6.625 12.582031 11.167969 Z M 12.582031 11.167969 "/>
</g>
</svg>
